<?xml version="1.0"?><svg version="1.2" baseProfile="tiny-ps" viewBox="0 0 300 300" xmlns="http://www.w3.org/2000/svg" xmlns:xlink="http://www.w3.org/1999/xlink"><title>Saku Shiina</title><g><g fill="#fefefe" transform="matrix(.1 0 0 -.1 0 300)"><path d="M0 1500V0h3000v3000H0V1500z"/></g><g fill="#faeada" transform="matrix(.1 0 0 -.1 0 300)"><path d="M1535 2939c-27-4-75-16-105-26-30-9-57-18-60-18s-15-6-27-13c-13-7-23-11-23-8 0 10-148-79-217-130l-72-54-52-60-52-60-10 7-10 6 6-10 7-11-18-23c-55-75-82-142-119-289l-33-135-1-135-1-135 17-65c20-79 53-166 77-202 10-14 18-30 18-36 0-5 25-36 55-68l54-59 1 14c0 8-6 22-14 30-33 37-106 199-106 234 0 6 18-16 40-50 23-34 53-73 69-85l28-24 6-105 7-105-40 2-40 2-92 46c-167 85-280 186-352 316-37 66-97 113-112 88l-6-9 21-23 21-22-7-9-8-8 13 7 12 7 1-13c1-7 0-24 0-38-2-33 21-88 54-125 15-16 34-42 43-57 9-16 20-28 25-28h8l-7-12-7-13 8 8 8 7 19-17c10-9 18-21 18-28 0-6 13-25 30-42l30-30-55-6-54-5-67 14c-69 14-145 40-203 70-19 9-47 17-63 18-15 1-28 5-28 9v8l-27-3-28-3v-38l47-16 47-16 32-29 32-29 79-34 79-34 57-10c31-5 80-9 109-9h52l6-10 6-10-10-19-11-19-55-17c-30-10-55-21-55-25s-13-10-28-13c-16-3-39-14-52-25l-23-19 7-11 7-12h170l5-14 5-14-20-49c-11-26-22-64-23-83l-3-35 22-1 21-1-5 14-5 13 38 37c22 20 34 34 28 30l-11-6 16 33 16 33 10-55 10-55 12-4 11-4-42-42-42-43-25-74-24-75V480c0-91 2-236 5-322l5-158h2215v53c0 71-27 397-40 475-5 34-15 95-21 135-17 113-47 274-91 492-22 110-44 225-49 255s-23 111-40 180c-16 69-34 143-39 165-25 123-121 447-175 590-20 55-61 147-91 205l-53 105-58 61c-155 162-313 235-508 233-44-1-102-5-130-10zm455-349c0-5-4-10-10-10-19 0-25-2-37-12-7-6-13-7-13-3 0 11 32 34 48 35 6 0 12-4 12-10zM790 2060c0-5-2-10-4-10-3 0-8 5-11 10l-6 10h10c6 0 11-4 11-10zm723-223c3-8 2-20-3-26l-8-13-20 6-20 7 5 19 5 20h36l5-13zm-37-112c14-16 24-25 20-19l-5 11 27-5 27-5-15-5c-8-3-22-10-30-17s-26-15-40-16l-25-3-31 18-30 18-11 42-12 41 18 16c9 9 23 18 31 21l15 5 17-36c9-20 29-49 44-66zm724-405-11-20h-64l30 20c17 11 36 20 43 20h13l-11-20zm70 0 11-20h-31v20c0 11 2 20 5 20 2 0 9-9 15-20zm-836-191 6-36-15-13-15-12v116l9-9c5-6 11-26 15-46zM778 919l-3-22-12-5-13-4v20c0 11 3 28 6 37l7 16 9-9 10-10-4-23zm2201 821c-8-14-23-41-32-61l-17-37-11-76-10-76 10-133c6-72 18-188 25-257l15-125 11-485c7-267 14-487 16-489s6-2 9 1 4 400 3 883l-3 879-16-24z"/></g><g fill="#f9d0ac" transform="matrix(.1 0 0 -.1 0 300)"><path d="m1446 2914-89-24-71-36c-39-20-104-59-144-87l-73-50-79-84-80-84-33-57c-45-79-61-120-93-247l-27-110-5-135-4-135 20-80c34-135 83-237 152-315 47-52 51-45 12 19-15 25-35 62-44 81-17 38-69 200-63 200 2 0 16-28 32-62l30-63 51-56 52-57 1-48c0-27 4-75 8-108l7-58-45 4-46 5-40 20c-22 11-73 38-113 58l-73 37-80 76-80 75-40 68c-38 65-55 87-43 54l6-15h-7c-4 0-15 10-25 23l-19 22 5 17 5 18-25-2c-14-1-26-6-26-11v-9l16 6 15 6-5-9-6-9 20-24 19-25-1-42v-41l26-40c14-22 31-40 36-40 6 0 10-6 10-14s20-36 45-62c25-25 45-50 45-54 0-5 16-24 35-43l35-35-55-7-56-7-62 11c-65 13-131 35-207 70-25 11-54 21-65 21h-20l14-9 13-8-9-6c-5-3-27 0-49 8l-39 14 30 1 30 1-20 8c-25 10-45 3-45-15v-13l42-12 42-11 38-32 38-33 82-35 83-35 61-12c33-6 86-11 117-11s57-2 57-5c0-2-5-14-11-27l-11-23-106-45-107-45v-30l70-1c39 0 80-2 93-2l22-2v-22c0-13-9-43-20-67s-20-48-20-53v-10l16 13 15 12-7-28-7-28 12 7c6 4 11 12 11 19 0 6 12 23 26 38s32 44 39 65l14 39 1-15c6-93 18-130 41-130h9v68l14 11 14 12 5-8c3-4 2-22 0-39l-5-32-48-31-49-32-26-54-25-54-16-78-17-78 9-175c5-96 9-223 9-282V0h2211l-2 48c-1 26-5 105-9 177-11 227-81 684-150 980-8 33-21 98-29 145-68 392-225 932-340 1171l-45 94-55 67c-98 118-221 203-351 241l-50 14-130 1-130 1-89-25zm653-158 43-44-12-23c-21-40-130-131-224-187l-21-12-18 4-17 4 2-14 3-15-40-22c-22-12-66-36-98-54l-57-32-15 5c-20 8-19 23 3 31 9 4 19 9 22 13 3 3 28 22 55 40 47 32 56 39 88 65 7 6 30 23 52 39 22 17 64 54 93 84l53 53 19 41 18 41-5 14-5 13h9c5 0 28-20 52-44zm-471-403 4-13h-14c-7 0-25-6-39-14-14-7-38-16-54-20l-30-8 50 35c51 36 75 42 83 20zm-825-138c-3-9-8-14-10-11-3 3-2 9 2 15 9 16 15 13 8-4zm397-29c30-8 85-27 122-42l66-27 46-82c25-45 46-87 46-93v-12h-23c-29 0-118-33-162-60l-35-22v-48h18l17-1-20-16-20-15 23 5 24 6-5-20-5-19h26l11 32 12 33 26 23 27 23 15-3 15-3 6-30c13-63 59-105 114-105h24l12-15c19-22 4-30-22-13l-23 15-32-15c-18-9-33-19-33-24v-8l24 10 24 9v-51l15-16 16-15h61l9-31c6-17 15-58 21-91 16-95 37-198 45-221l7-21-34-20c-18-10-59-29-91-42l-58-24-22 21c-12 11-58 41-102 67-96 56-121 78-146 128l-19 37h21l-6 10c-3 6-15 10-25 10-11 0-30 5-44 11l-24 11 5 15 5 14 12-16 12-16 39 3 40 3 3 24c5 33-6 84-22 106l-14 19-16-13-16-13v67l-20 37-19 37-5 83-5 83 9-40c5-22 9-59 9-82l1-42 12-7 11-7-6 109-6 109 13 44 12 43 25 14c13 7 43 16 67 20 23 3 42 10 42 14v7l-49-8c-27-4-68-17-92-28-23-12-43-20-44-18-1 1-12 42-25 91-12 50-24 96-27 103l-5 13h28c16 0 54-7 84-14zm-384-110c9-3 20-4 25 0l9 5v-49l-20-5-20-5-6 9c-3 6-3 16 0 24l5 15h-19v-58l-17-13-16-14 6 49c4 27 7 61 7 75l1 26 14-26c8-15 22-29 31-33zm104 1v-14l-25-11-25-12v39l23 4c12 2 23 5 25 6 1 0 2-5 2-12zm1068-44c40-50 36-57-6-12l-30 32-16-6-17-7-14-35c-8-19-15-44-15-55v-20h20v64l20-22 21-22h20c11 0 29 4 39 10l18 10 10-13c14-16 29-78 25-98l-4-17-20 5-20 6-14 32-13 33-22 12-22 12-14-6-14-5v-73l19-5 19-5-2-69-2-69h14l-10-37c-5-21-21-71-34-112-13-40-24-81-24-91 0-47-108-198-161-225l-28-15-4 8c-3 4-8 98-12 209-3 110-11 218-15 239l-9 38 22-28 22-27 3 39 2 40-23 6-23 5-24 104-25 104 72-1 72-1-21-22c-26-28-13-30 27-3 17 11 33 20 38 20h7v-78l15-12 15-12 1 28 1 29 10-27c5-16 14-28 19-28h10l-12 22-11 21-1 50-1 49 24 18 23 17-7 12-7 11 6 11 7 10 20-3 21-3 35-42zm-602-149c-27-13-60-34-73-46l-23-21-7 6-6 7 18 20c16 18 106 59 130 59 6 0-12-11-39-25zm124-39 12-15-6-15-5-15h-63l6 13c3 6 9 20 12 30 8 21 27 22 44 2zm533-41-5-13-14 6c-20 8-17 22 5 20l19-1-5-12zm-13-45c0-4-9-5-20-2l-20 5v-44l14 5 15 6-11-30-10-30-14 27-14 27 12 32 11 33 19-11c10-7 18-15 18-18zm-903-66c-2-2-11-1-19 2l-14 6-2 42-2 42 20-44c11-24 19-46 17-48zm573 33 15-19-22 13-22 14 6 9c3 4 6 7 7 5s8-12 16-22zM504 1613c86-108 189-197 256-223 19-8 51-23 70-35 33-20 93-46 133-59l17-5v-16c0-9-7-29-15-44l-14-29-47-31-47-31H751l-71-26-72-26-13 19-14 18 17 7c9 3 59 16 110 28l92 21 50 31c48 30 63 44 38 35l-13-4-12 28-11 28-32 16c-37 19-46 15-31-13 6-12 11-38 11-59l-1-38-14 19c-8 11-15 29-15 40v21l-35 44c-19 24-35 47-35 52 0 4-17 18-38 31-48 29-180 171-210 226l-23 42h10c6 0 35-30 65-67zm632 34 14 5v-23l-10 6-10 6v-10c0-6 9-20 21-32 11-11 19-23 16-25-6-6-67 67-67 80v10l11-11 11-11 14 5zm459-47c-3-5-12-10-18-10h-12l15 10c19 12 23 12 15 0zm652-152-5-13-1 19c-1 11 2 17 5 13 3-3 4-12 1-19zm-37-86c-3-26-9-53-13-60l-8-12h-88l6 17 6 16-14-8-14-8 14 14 14 14 4-13 5-12 8 5 9 6-6 14-5 15h42v11c0 8 32 42 46 49 0 0-2-21-6-48zm-1765-39 60-14 78 3 77 3v-20l-64-13-64-12-76 20-77 19-57 32c-83 45-85 52-6 23 38-14 96-33 129-41zm1835-15c0-5-7-8-15-8h-15v33l1 32 14-25c8-14 14-28 15-32zm-1142-128 1-15-9 20c-5 11-8 29-8 40v20l8-25c4-14 8-32 8-40zm-444 5c3-8 4-15 2-15-3 0-11-3-19-6l-16-6 6 21c6 25 18 27 27 6zm742-51 11-45-20-14c-12-8-22-13-23-12s0 30 3 65c7 70 12 71 29 6zm-882-44c-6-6-28-13-50-15l-39-5 30 14c17 9 39 15 50 16h19l-10-10zm115-81 3-24-18-32c-9-18-22-33-27-33h-10l7 52c4 28 10 56 13 60 9 16 28 2 32-23zm79-28 3-33-13 4-13 5-3 32-3 33 13-4 13-5 3-32zm-8-74v-8l-10 6c-5 3-10 14-10 23v17l10-15c5-8 10-19 10-23zm682 487c-56-30-108-54-117-54h-15v-22l16 6 16 6 46-32c133-91 161-108 176-108h16l7 28c5 15 8 57 7 93v66l-13 31c-7 17-19 33-25 35l-13 5-101-54zm68 11c0-6-96-55-107-55-10 0 89 60 100 60 4 0 7-2 7-5zm1468 288-33-68 1-180v-180l17-130 16-130 11-371c5-203 10-430 10-502V0h20v880c0 484-2 880-4 880-3 0-20-30-38-67zM580 863v-23h10c13 0 13 11 0 30l-10 15v-22z"/></g><g fill="#c79674" transform="matrix(.1 0 0 -.1 0 300)"><path d="M1473 2920c-99-26-199-69-291-126l-77-48-91-91c-137-137-177-209-230-420l-27-110-4-130-5-130 22-85 21-85 44-90 45-91 36-34 36-35-35 65c-36 65-79 184-91 250l-6 35 20-47c26-63 63-121 110-172l38-41 7-90c3-49 9-98 11-107l5-18h-88l-44 23c-24 12-53 28-64 34-11 7-42 22-68 34l-48 23-57 51c-88 78-105 85-27 11l70-66 130-64c72-35 138-66 147-70l18-5v-46l-51-73-50-72H775l-65-20c-36-11-75-20-87-20h-21l-8 32c-4 18-7 37-6 41 2 5-1 7-5 5-102-43-123-53-123-59 0-4 23 1 50 12 28 10 55 19 60 19h10v-36l-62-12-62-12-9 13-9 12 5-15 4-15 87 3 86 3 1-33 2-33 4 25c6 31 11 36 48 44l30 7-12-12c-7-7-13-21-13-31 0-11-9-37-20-58l-20-40h-29l5 33 5 32-17-29-16-29 16-9 15-9-11-25-11-25-9 13-8 13v-22c0-31 6-29 35 15 14 20 37 52 50 71l25 34 1 26 1 26 8-25c4-14 9-41 10-60l2-35 5 13 5 12 9-6c5-3 9-14 9-25v-20l-12 7-11 7 7-11c4-7 11-12 17-12h9v33c0 17 5 39 10 47l9 15 10-10 9-10-5-33-5-33-27-13c-41-22-78-66-105-128l-25-56-12-86-12-86 11-183c7-100 12-217 12-259V0h1880l4 23c6 30 25 234 37 397 5 74 10 216 11 315l1 180-12 75c-6 41-17 93-24 115l-12 40-3-55c-3-78-31-308-41-350l-9-35-1 245-1 245-15 132c-28 255-63 424-130 627-32 99-124 320-131 314-2-2 13-53 32-113 68-216 127-531 123-663l-2-47-4 30c-5 32-42 177-69 272-18 64-161 399-217 508-66 131-163 252-185 231-3-3-1-6 5-6 30 0 160-208 230-370 40-92 114-303 127-365l7-30-12 15-11 15 6-34c3-19 9-71 12-115l6-81-11-42-12-43-38-37-39-38-82-43c-104-55-190-87-282-107-40-8-75-15-78-15s49 28 115 62c66 33 141 74 166 91l45 29 40 54c21 30 52 79 68 110l28 56 4 41 4 42-13-40c-16-47-65-145-73-145-2 0 1 10 8 23l13 22-1 180-1 180-41 85c-47 98-148 256-182 285l-23 20 8-15c5-8 31-48 57-89 44-67 55-91 44-91-2 0-51 46-108 103-104 104-222 200-310 251-81 47-52 14 39-44l85-55 120-123c66-68 117-126 114-129-10-10-132 54-228 121-54 37-98 65-98 62 0-9 175-148 218-173 23-14 42-27 42-29s-39-4-87-3h-88l20 9 20 8-54 3-54 4-30 55c-43 80-117 190-128 190h-10l7-12c4-7 13-21 21-30 33-38 132-234 163-321l18-52-9-6c-5-3-29-1-52 5l-44 10-38 75c-70 138-188 301-217 301h-10l13-16 14-17-42 22c-70 35-73 23-3-14 36-20 79-49 95-66l30-31-82 41-82 41-43 6-43 5 83-29c46-17 87-34 90-38l7-7-25 7c-14 3-59 11-100 18l-75 11-17 14c-9 8-19 25-22 39-4 13-11 24-16 24h-10l21-52c12-29 25-64 30-76 5-13 7-28 3-33l-6-10 17-64c15-62 45-276 45-320l-1-20-8 15c-5 8-23 60-41 115s-40 120-48 144l-16 44-4-11c-2-6 4-33 12-61 13-45 19-99 31-269l2-42-8-5-8-5-6 47c-13 89-90 371-100 361-3-3 16-155 30-230l4-28h-14c-22 0-18-17 5-23l20-5v-29c0-15 5-46 12-68 6-22 12-51 13-65s7-38 14-53c6-16 11-34 11-40-1-12-73 127-83 160-3 10-13 38-22 63-39 105-68 274-58 337l5 28-12-15-11-15 6-75c11-134 36-234 88-353 15-32 22-55 17-52l-10 6v-7c0-5 12-22 27-38l28-31-38 34c-20 19-37 39-37 44v8l10-6c6-4-8 29-32 73s-44 79-46 77 12-32 30-66c18-35 35-68 37-73l4-9-12 7c-35 22-93 179-112 304-6 40-13 71-16 69-8-9 17-240 33-300 9-33 14-61 11-63-6-6-41 96-58 166l-13 55v240l17 73c10 41 32 104 49 140 18 37 34 72 37 77l4 10-16-14c-23-18-21-9 7 48 53 103 148 210 269 302l78 59 83 40c46 21 116 49 157 60l74 22 110 7 110 8-100 1-100 1-72-19zm-336-696c-3-3-12-4-19-1l-13 5 19 1c11 1 17-2 13-5zm40-28c29-8 90-29 136-47l84-33 18-31c9-16 33-58 52-92l34-63-23-1-23-1 20-5c11-3 24-9 29-14l10-9h-89l-45-21c-25-11-57-32-72-46l-28-27-7 8-8 8 37 34c44 40 34 46-11 8-34-28-40-51-16-60l16-6-13-16-13-16 18 7 17 6v-14c0-25 14-16 30 18l15 32 34 22c19 13 38 23 42 23h9v-70l34-37 34-37 41 1c23 1 41 1 41 0s9-34 20-72c23-80 46-187 55-260 4-27 14-76 22-108 9-32 14-59 12-60-22-15-112-57-142-67l-39-12-21 19c-26 23-124 83-136 83-4 0-29 18-54 40-46 40-81 95-72 110l5 8-50 17-49 16 25 41 26 41 2 68 1 67-17 19-18 20v54l-7-4-8-5 4 71c5 78 5 78 25-33l14-75v50c1 28-5 86-13 130l-14 80 31 26 30 27 51 16 52 16-40-5-39-4-46-24-46-24-13 56c-7 31-21 81-32 111-10 30-19 56-19 57 0 7 50 2 97-11zm97-2 19-7-7 11c-4 7-4 12-1 12 11 0 85-45 85-51s-136 33-165 46c-15 8 47-3 69-11zm692-132c11-10 28-29 38-43l17-27-16-6-16-6 5 9 6 9-21 26-20 26h-30l-19-42c-11-24-20-51-20-60v-18h20v75l23-29 23-28 19 4 20 5-29 12c-16 6-26 14-23 17s20-2 37-11l33-17 8 13 8 14 20-45c23-50 26-77 11-100l-10-15v13c0 6-5 12-11 12h-10l6-10c3-5 4-10 1-10s-15 20-27 45l-22 46-19 10-20 11-14-6-14-5v-20c0-11 5-23 12-27l11-7-7 12-8 12 6 16 6 16 22-19c11-11 26-32 33-48l13-29-24-45c-13-25-24-52-24-60v-16l26 52 26 52h19c22 0 22 2 8-39-6-17-15-31-21-31h-10l5-13c3-7-1-26-8-42l-13-30-1 18-1 17h-30v-19c0-10-11-52-24-92-13-41-26-87-30-104l-7-30 11 15c5 8 19 45 31 83 11 37 23 67 25 67s13-9 25-21l20-20-17-52c-35-107-91-196-144-228-38-24-47-24-28-1 38 44 26 42-23-4-30-29-64-55-75-58l-22-7-6 158c-3 87-11 208-17 268-10 101-43 287-54 304l-4 8 79-1 80-1-23-17c-30-24-9-22 31 2l32 20v-88l16-13 17-14-7 32-7 31 10 6c5 4 13 26 16 50l7 44 20 5 20 6-7 11-7 12-9-13c-5-8-9-10-9-5 0 16 32 46 49 46 9-1 25-8 37-18zm-829-174-5-13v50l5-12c2-7 2-19 0-25zm416 25c-7-2-19-2-25 0l-13 5h50l-12-5zm73-43-6-31 11 7 10 6-2-13c-1-8 0-21 4-29 10-27 26-203 31-340 2-74 2-119 0-100-11 85-61 302-81 358l-5 12 18 1 19 1-14 5-14 6 24 13 24 13-12 1h-13v25c0 15-7 39-15 54l-14 28 6 7c4 3 13 6 21 6h15l-7-30zm-38-2 12-12v-40c0-23-4-47-9-54l-8-14-16 49c-9 27-19 57-23 66l-6 17h19c10 0 24-5 31-12zm-73-28 7-21-11-13-11-13-20 2c-29 2-32 9-19 39l12 26h36l6-20zm-400-102 22-48h-13c-7 0-19 3-28 6l-16 6 6 9 5 9h-21l1 58v57l11-25c6-14 21-46 33-72zm448 0c-2-5-11-8-19-8h-14v48l13 5 12 4 6-21c3-12 4-24 2-28zm-50 22c-6-22-23-27-23-7 0 15 9 27 21 27h7l-5-20zm714-82-5-13v50l5-12c2-7 2-19 0-25zm-250-10-5-13-1 19c-1 11 2 17 5 13 3-3 4-12 1-19zm40-25-5-18v60l5-12c2-7 2-21 0-30zm-881 4 14 5v-11c0-6-5-11-11-11h-11l12-15 12-15 12 7 11 6-7-8-8-8 11-14 11-13h-31l-25 33c-15 19-26 40-26 47v14l11-11 11-11 14 5zm1101-39-5-13-1 19c-1 11 2 17 5 13 3-3 4-12 1-19zm-182-45-7-58-19-40c-21-41-51-79-84-105l-19-15 27 45c14 25 37 74 51 110 30 80 48 120 54 120 2 0 1-26-3-57zm-1008 10-5-18v60l5-12c2-7 2-21 0-30zm1194-193-10-55 4 55c3 30 6 82 7 115l2 60 3-60 4-60-10-55zm-1215 114c-3-7-1-14 3-16l8-3 6-104 6-105-14 21-15 21-5 73c-3 41-8 92-11 113l-5 39 16-13 16-13-5-13zm1188-123c-3-28-12-57-18-65l-11-14-80-7-80-6 37 25c20 14 41 26 46 26s31 21 58 48c27 26 50 46 52 46 2-1 0-25-4-53zm66-58v-13h-30v33l1 32 14-19c8-11 15-26 15-33zm-53-25-5-13v50l5-12c2-7 2-19 0-25zm-1088-101 1-18-10 6-10 6 1 37 1 37 8-25c4-14 8-33 9-43zm1062 26c-5-10-23-31-40-47l-30-29-58 6c-32 4-87 16-123 27l-65 20 35-5c19-4 65-9 102-12l68-6 44 17c24 9 50 24 56 32 17 19 23 18 11-3zm-764-71 11-47-16-17c-8-10-19-18-24-18h-8v139l13-5 13-4 11-48zm-587-67-12-15-22 12c-33 17-32 18 9 18h37l-12-15zm-97-42c4-21 4-48 1-60l-6-23h-25l-7 46c-3 26-6 53-6 60v14h37l6-37zm622 872c-39-17-21-18 25 0l35 13-15 1c-8 0-28-6-45-14zm123-228c-16-6-28-15-28-19v-9l30 16c17 9 30 18 30 20 0 3-1 5-2 4-2-1-15-6-30-12zm-80-287c-48-28-94-50-102-50s-17-4-20-9l-6-9 20 5 20 5 69-50c38-28 78-55 89-61l21-11 6 10 6 10-8 1c-4 1-11 1-15 0-5 0-8 4-8 10v10l-9-5-8-6-17 19-17 18 22 40 21 40 30 17c16 10 31 16 34 13 3-2 7-27 11-55l6-52-13-15c-7-8-9-15-6-15 4 0 2-9-4-19l-10-20 9-6 10-6 12 22 11 22v68l-1 68-16 30-16 31h-17c-9 0-56-23-104-50zm87 21c-17-16-116-63-122-58-5 6 105 66 122 67h9l-9-9zm356 492c-1-12 4-25 9-28l10-6-1 8c0 4-4 17-9 28l-9 20v-22zm77-45 22-11 1-26v-26l12 24 11 23-19 14c-10 8-26 14-34 13h-16l23-11zm69-64c-8-8 1-24 14-24 5 0 9 7 9 15 0 15-12 20-23 9zm-17-48c0-8 4-17 8-20l8-5v20c0 10-4 19-8 19s-8-6-8-14zm-145 1161c90-30 126-49 206-108l65-48 57-68 57-67 35-66c32-62 89-202 120-295 77-233 158-535 206-770 4-22 29-141 54-265 26-124 51-247 55-275 48-275 61-359 75-480 9-77 18-151 21-165 2-14 4-87 5-163V0h22l-6 168-7 167-20 155c-23 170-46 308-84 500-13 69-41 211-61 315-21 105-43 215-51 245-7 30-29 123-49 205-109 451-228 769-343 918l-44 58-67 55-66 55-80 39-80 39-45 6-45 6 70-24zM389 1747c17-21 31-45 31-53v-15l9 5 9 6 25-27c14-16 39-44 57-63l32-35-30 41c-17 22-36 52-43 67l-12 26-8-5-9-5-46 48-47 48 32-38zm2576-41-26-44-9-58c-16-94-9-293 15-457 10-67 24-427 31-779l7-368h17v875c0 481-2 875-5 875-2 0-16-20-30-44zm-2544-57-1-26 26-39c15-21 30-41 34-44 3-3 14-18 24-35 10-16 29-39 44-49l26-20-55 70c-69 87-86 114-92 145l-4 24-2-26zm-306-228-5-10 8-5 9-5v14c0 17-3 19-12 6zm464-8c5-10 23-31 40-47l30-29-5-9-5-8h9c5 0 12-10 15-22 4-12 8-20 11-17s2 17-2 31l-7 26-43 46c-44 48-59 58-43 29zm-376 0 17-5-6-9-6-10-36 6-37 6 38-15c21-8 44-21 50-29 18-21 69-54 97-61l25-7-35 20c-19 11-48 31-65 45l-30 26 13 8 14 9 70-29c38-16 72-28 74-25 7 6-163 77-183 76l-18-1 18-5zm222-83c11-5 29-8 40-8h20l-25 8c-14 4-32 8-40 8l-15 1 20-9zm103-17c17-2 47-2 65 0l32 4H495l33-4zm-178-28c0-2 21-13 46-25l47-20 26 1 26 1-38 9c-21 5-51 16-67 24-30 16-40 18-40 10zm405-25 7-33-30 22c-49 35-51 24-2-18l44-38-22-7-22-7-31 25-31 26-31 1c-18 0-57 2-87 4l-55 4 25-9c14-4 53-8 88-9 34-1 62-3 62-6 0-2-5-15-11-29l-12-25-26-10-26-9 20-1c28-1 42 10 55 43l11 29 14-19 13-19-21-13-22-13 19 6c11 3 39 10 64 16 46 10 127 52 139 72l7 11-38-22c-46-27-46-27-47 1l-1 22-8-30-7-30-11 28c-7 16-12 34-12 42s-5 17-11 21l-11 7 7-33zm1855-690c0-51-38-329-60-448-11-57-20-107-20-113V0h151l-5 48c-3 26-8 101-11 168-3 66-12 175-19 243l-14 123-11 11-11 11v-34z"/></g><g fill="#816351" transform="matrix(.1 0 0 -.1 0 300)"><path d="M1583 2933c15-2 37-2 50 0l22 4h-100l28-4zm-118-18c-54-17-33-18 30-1l50 14h-20c-11 0-38-5-60-13zm333 8c7-3 16-2 19 1 4 3-2 6-13 5l-19-1 13-5zm86-27c33-14 61-24 63-22 6 5-59 34-92 41l-30 6 59-25zm-549-26c-79-37-68-38 20 0 39 16 63 29 55 29s-42-13-75-29zm631-8c5-4 35-25 67-46l58-39 61-66c66-73 105-135 160-256 35-79 109-290 143-413 10-34 20-60 23-57 5 4-2 30-53 195-55 178-131 355-189 442-48 72-133 158-205 207-33 23-63 41-67 41-5 0-4-4 2-8zm-760-57c-83-50-176-126-228-187-56-66-128-168-128-182 0-5 22 24 50 66l50 76 93 88 94 89 67 39c58 34 74 46 63 46-2 0-29-16-61-35zm702-373c98-125 214-369 278-582l29-95 3 16c8 44-130 390-219 545l-43 74-48 53-49 52 49-63zm-1073-23c-4-6-5-12-2-15 2-3 7 2 10 11 7 17 1 20-8 4zm765-21c8-8 60-53 115-100 56-48 123-110 149-138l48-52-10-10-9-9-49 22c-27 13-85 44-129 71l-80 48 33-29c19-16 73-51 122-77l88-49-5-7c-9-16 10-7 32 14l22 21-31 35c-65 71-117 122-178 174-62 53-147 115-118 86zm-796-83c-9-37 2-41 14-6l11 31h-9c-5 0-12-11-16-25zm654-30c47-72 114-208 142-290l21-60-18-12c-18-14-6-18 15-5l13 9-3 33-3 33 15 4 15 5-13-10-14-9 43-6c24-3 56-3 71 0l28 5-6 9-5 9-52 1-52 2 23 4 22 4v21l-25-4-24-5 6 10 6 9-34-6-34-6 20 9 20 8-20 5c-11 3 36 4 105 2l125-3-110 9c-60 5-121 13-135 16l-25 8 35 6 35 7-35 2-35 1-48 88c-26 48-62 103-78 122l-31 35 40-60zm-163-17c28-31 58-70 68-87l18-31-52 20c-28 12-57 19-63 17s22-16 62-31l73-28 30-54c39-69 47-70 13-1-42 82-121 188-174 232-13 11-2-6 25-37zm-249 9c3-10 9-15 12-12s0 11-7 18l-12 12 7-18zm554-21c0-2 8-10 18-17l17-14-14 18c-13 16-21 21-21 13zm-540-15c0-6 5-13 10-16l10-6v15c0 9-4 16-10 16-5 0-10-4-10-9zm75-10-19-8 28-7c16-4 31-5 34-1 3 3-3 5-14 5h-19l15 10 15 10-10-1c-5 0-19-4-30-8zm-364-57 1-19 5 13c3 7 2 16-1 19-3 4-6-2-5-13zm-9-54v-25l5 13c2 6 2 18 0 25l-5 12v-25zm324-15c3-16 10-46 14-65 5-19 14-81 20-137 14-118 25-138 16-30l-6 72 10-30c6-16 15-55 20-85l9-55-6 80c-3 44-6 91-7 105l-1 24 40 23c22 12 35 23 29 23s-28-11-48-25c-43-29-50-31-42-9l6 16-12 39-11 40-10-13-9-13 5 35c3 19 3 29 0 21l-5-13-10 13-9 14 7-30zm43-95v-15l-9 20c-5 11-9 27-9 35v15l9-20c5-11 9-27 9-35zm840 63c14-16 37-41 49-58l23-30-18 33c-19 36-61 82-74 82-4 0 5-12 20-27zm-1217-83-2-105 20-84c19-77 68-206 76-198 2 2-9 35-25 73-39 97-52 160-61 299l-7 120-1-105zm1197 57 11-14-7-6c-3-4-10-7-15-7h-9l7 11 7 12-13-5c-8-2-16-10-18-16l-4-12h31l-5-14-5-14 10-7 11-6-6 15-6 16h23l-6 9-5 10 10 6 10 6 1-13c1-7 1-16 0-20l-1-7 15 5c20 8 19 9-10 39-27 26-46 35-26 12zm-108-33c-13-13-27-21-32-19-4 3-11-1-16-8-4-7-19-21-33-30-34-24-14-21 25 3l32 20 6-46c2-25 9-50 14-55l10-10-8 48c-4 26-8 55-8 63v15l12-17 13-17 11 40c12 44 8 47-26 13zm-979-39c0-16 4-41 8-55l8-25v25c0 14-4 39-8 55l-8 30v-30zm618 6c0-5 5-13 10-16l10-6v10c0 5-4 13-10 16l-10 6v-10zm-516-16c3-8 8-44 12-80l7-65-19-1h-19l23-9 22-9v-13c0-7 7-53 15-103 19-112 55-419 49-424-2-2-13 16-24 40s-20 39-20 34v-11l-42 3-43 3 33-15 33-16-6-22c-10-31-50-100-81-136l-26-31-36-1-37-1 29-7 29-6-16-14-17-13-25 16c-13 9-35 16-47 16h-23l10-8 10-7 3-45 4-45 14-16 15-17-8-30-8-30-45-33-45-34-27-55c-53-107-59-187-44-552l9-218h1643l17 92c10 51 25 122 33 158 18 82 48 276 70 456l18 139v300l1 300-17 111c-19 118-50 263-67 304l-10 25v-20c-1-11 6-42 14-70 24-76 53-282 65-457l11-157-11-183c-11-185-38-449-47-458-5-5 4 215 13 293l5 47h-21v-24c0-32-39-228-46-235s-5 15 26 239l22 165-6 170c-6 180-20 320-37 357l-9 23 5-30c3-16 7-73 10-125l5-95-9 30c-5 17-18 71-29 120l-20 90-1-93-1-93 20-39 20-40h-47l3 28 4 27-13-40c-6-22-16-47-22-55-5-8-8-22-7-31l3-17-34-36-34-36h-94l-87 22-87 22 18 4c10 2 47-1 81-7 35-6 76-11 92-11h29l54 25 53 25-6 15-5 14 14 28c8 15 15 37 14 48l-1 20-9-25-9-26-93-13c-50-8-108-15-127-17-19-1-73-16-120-33l-85-31 40-1 40-2-95-7c-52-3-97-5-99-3-2 1 17 12 43 24 26 11 45 23 43 25-3 3-34-9-68-27-35-18-86-42-114-54l-50-20-61 40c-34 22-91 58-125 80l-64 40-25 52-25 52-43 15-43 15 6-9c3-5 18-11 33-15l29-6 17-36 17-36 10-81c5-45 9-121 9-171l-1-90-18 52c-11 28-31 67-45 85-14 19-30 45-36 58l-11 25 5-23 4-23-14 12-14 11-1 27v26l-8-18-7-18-16 18-16 18-9 105c-12 118-10 180 6 259l11 55 13 8 12 7 9-9 8-8 16 5 15 6-6-25-7-25 25-23 25-23v24c0 14-9 42-20 64s-20 45-20 52-4 13-9 13-13 9-16 21c-4 11-9 18-12 15s2-17 11-30c9-14 16-29 16-34v-8l-35 4-35 4-1 47-2 46-6-57c-3-31-9-59-13-63l-6-6-6 28c-2 15-8 47-11 71l-7 42h-20l6 16 6 16-21 69c-11 38-23 69-26 69s-3-7 1-15zm43-187-5-13-1 19c-1 11 2 17 5 13 3-3 4-12 1-19zm44-200-9-33-1 36c-1 20 2 39 6 43l8 7 3-9c2-6-1-25-7-44zm129 36v-15l-10 6c-5 3-10 10-10 16 0 5 5 9 10 9 6 0 10-7 10-16zm1094-214 6-45-10 15c-5 8-10 30-10 49 0 45 6 37 14-19zm-945-150 29-12 6-21c3-12 6-58 5-102v-80l-33-39-33-39-16 10-17 9-4 119c-3 66-8 143-12 170l-7 50 27-26c14-15 39-32 55-39zm58-127-4-38v140l4-32c2-18 2-50 0-70zm90 34 23-20-18-13-17-12-13 21-13 22 5-30 6-30-25-18-25-18v153l28-17c15-10 37-27 49-38zm810-559-5-13-1 19c-1 11 2 17 5 13 3-3 4-12 1-19zm-10-50-5-13v50l5-12c2-7 2-19 0-25zm60-70-4-23v40l-1 40 5-17c2-10 2-28 0-40zm145 1487c0-11 6-36 13-55l13-35v20c0 11-6 36-13 55l-13 35v-20zm-1436-70c7-87 14-112 14-49v39l11-15 10-15-7 25c-4 14-13 41-20 60l-14 35 6-80zm-242-4 4-63 11-11 11-11-1 10c0 5-7 38-14 74l-15 65 4-64zm700 42 7-20-58-7-58-6-44-29c-23-16-42-32-42-37 1-5-3-9-8-9s-13-4-18-9l-8-9 14 8 14 8-5-14-6-15 12-16 12-17 13 34 12 34 33 20c18 12 38 21 45 21h11v-55l20-32c10-17 29-37 41-43l21-12 34 4 34 4 10-26 10-25-6 32-5 32 20 20c12 12 17 21 12 21h-9l5 19 5 19-9 16-8 15-1-40-1-40-11-11-11-11-7 19c-3 10-14 40-24 66l-19 48 22 16 22 16-27-6-28-6v14c0 8-5 18-11 22l-11 7 6-20zm9-69 15-5-8-30-9-29h25c13 0 24-3 24-7 0-5 3-18 6-30l6-23h-28c-16 0-35 4-43 9l-14 9 6 21 5 21-11 1c-7 1-18 1-24 0l-13-2v16c0 42 27 63 63 49zm455 59c17-17 32-37 32-44v-12l6 6 7 6-17 25c-9 14-26 31-38 37l-23 12 33-30zm-337-28c0-11 6-42 15-70l14-50-6 49c-3 27-9 58-14 70l-9 21v-20zm-750-15c-1-22 20-93 25-87 3 3-1 27-10 53-8 27-15 42-15 34zm1633-30c2-14 18-86 35-160 18-74 44-193 59-263 15-71 28-124 30-119 6 20-94 482-118 542l-10 25 4-25zm-468-45-17-55-7 4-8 4 4-75 3-75-17-50c-9-27-14-52-11-55 10-10 38 102 43 177 3 41 13 97 21 123 8 27 13 50 11 53-3 2-12-21-22-51zm-960 25c3-14 11-32 16-40l9-15-7 25c-3 14-11 32-16 40l-9 15 7-25zm-275-46 1-19 5 13c3 7 2 16-1 19-3 4-6-2-5-13zm19 11c0-5 5-17 10-25l10-15v10c0 6-5 17-10 25l-10 15v-10zm80-23c0-15 62-154 66-149 3 3-54 147-62 156-2 2-4-1-4-7zm-89-28 1-19 5 13c3 7 2 16-1 19-3 4-6-2-5-13zm846-64c3-47 7-87 9-89 7-8 3 94-6 134l-9 40 6-85zm554 64 1-19 5 13c3 7 2 16-1 19-3 4-6-2-5-13zm736-51-32-68 1-155v-155l18-135 17-135 9-330c5-181 9-414 10-517V0h20v875c0 481-2 875-6 875-3 0-19-30-37-67zm-2107 52c0-20 59-111 99-153 22-23 41-46 41-52v-9l17 6 17 7-12 4-12 4 6 10 7 11-10-6-10-6-41 42c-23 23-55 67-71 97-17 30-31 51-31 45zm-19-40c0-11 4-27 9-35l10-15-1 15c0 8-4 24-9 35l-9 20v-20zm1406-40c3-33 7-62 9-64 8-8 2 74-7 99l-8 25 6-60zm-26 29 1-19 5 13c3 7 2 16-1 19-3 4-6-2-5-13zm-1761 2c0-2 8-10 18-17l17-14-14 18c-13 16-21 21-21 13zm1511-12c-1-11-10-47-21-79-25-74-25-96 0-30 11 28 23 57 28 65l8 15-7 25-7 25-1-21zm-471-4-15-10h12c6 0 15 5 18 10 8 12 4 12-15 0zm503 3c-7-3-13-9-13-14 0-6 3-8 8-6l7 5 1-24 2-24-12 7-11 6 12-13c18-19 25-8 21 32l-3 35-12-4zm-392-18c0-11 7-36 15-55l14-35-6 35c-4 19-10 44-15 55l-8 20v-20zm620-88-1-89-16-34-17-35-41-33c-22-19-69-49-104-67-34-17-60-34-57-37 2-3 39 15 81 39l77 44 38 40 39 40 1-35 1-35 8 25c10 32 11 150 0 215l-7 50-2-88zm-1370 63c0-8 6-26 14-40s14-29 15-33v-8l-12 6c-7 4-5 0 4-8l18-14-8-8-7-8 13 7 12 7v-12c0-7 2-10 5-7 3 2-1 18-8 34s-21 45-30 64l-16 35v-15zm-421-19c0-6 4-13 10-16l10-6-6 15c-7 18-14 21-14 7zm550-20c0-6 4-13 10-16l10-6-6 15c-7 18-14 21-14 7zm185-56c-4-16-15-43-23-60l-15-30 16 13c19 16 41 77 34 95l-5 12-7-30zm467 5c0-14 4-36 8-50l8-25v25c0 14-4 36-8 50l-8 25v-25zm46-97c-3-152-1-180 12-201l11-17-6 30c-4 17-6 92-5 168 1 75-1 137-4 137s-7-53-8-117zm-587 10c1-80 15-204 18-168l2 20 10-20 9-20-6 25c-3 14-8 73-11 133l-6 107h-17l1-77zm965 62c-9-26-7-32 5-12 6 10 9 21 6 23-2 3-7-2-11-11zm-1426-30c19-19 36-35 39-35s-10 16-29 35-36 35-39 35 10-16 29-35zm-130 22c0-2 15-16 33-33l32-29-29 33c-28 30-36 37-36 29zm1411-13 1-19 5 13c3 7 2 16-1 19-3 4-6-2-5-13zm-991-14c6-11 13-20 16-20 2 0 0 9-6 20s-13 20-16 20c-2 0 0-9 6-20zm83-55v-60l4 33c2 18 2 45 0 60l-4 27v-60zm947-12-35-65-31-27c-17-14-39-32-50-39-10-7 8 1 41 18s72 41 86 54c32 28 89 105 89 120 0 6-15-12-34-39-36-53-73-91-81-83-3 2 9 30 26 62 17 31 29 59 27 61s-19-26-38-62zm-890 37c0-5 5-10 11-10h10l-6 10c-3 6-8 10-11 10-2 0-4-4-4-10zm592-10v-25l5 13c2 6 2 18 0 25l-5 12v-25zm-135-15c-7-18-106-75-130-75h-18l7 13 7 12-20-17c-11-10-28-18-39-19h-19l25-10c13-6 49-29 80-52l55-41-27 33-28 33v43l33 14c17 8 44 25 60 39l27 26 15-20c17-22 20-12 5 17-13 23-26 25-33 4zm-817 1c0-2 7-7 16-10l15-6-6 10c-6 10-25 14-25 6zm-111-23c5-10 22-29 37-43l28-25-33 43c-34 43-49 55-32 25zm1072-49 1-19 5 13c3 7 2 16-1 19-3 4-6-2-5-13zm-1401-28c0-2 7-7 16-10l15-6-6 10c-6 10-25 14-25 6zm273-13c15-2 37-2 50 0l22 4H505l28-4zm1027-34c0-17-5-40-11-52l-10-22 15 19 16 20v33c0 18-2 33-5 33s-5-14-5-31zm227-1c-32-35-29-48 5-24 12 9 19 16 14 16h-8l12 15c25 30 3 24-23-7zm853-4c-1-21 65-334 68-325 2 6-11 81-28 168-29 142-40 184-40 157zm-1508-34v-25l5 13c2 6 2 18 0 25l-5 12v-25zm-378-18c23-26 26-27 26-5v16l-7-6-6-7-16 12-16 13 19-23zm48-7v-30l5 18c2 9 2 23 0 30l-5 12v-30zm-98-33 6-10-12-5-13-5 12-1c6-1 14 3 18 8l5 10-11 7-12 7 7-11zm-156-129c12-2 30-2 40 0l17 5-40-1h-40l23-4zm75 0c9-2 23-2 30 0l12 5h-60l18-5zm89-83v-25l5 13c2 6 2 18 0 25l-5 12v-25zm-106-17-7-18 12 12c7 7 10 15 7 18s-9-2-12-12zm2110-71c3-29 10-65 14-80l8-27 1 20c0 11-6 47-14 80l-14 60 5-53zm-199-122-7-90-25-117c-15-65-30-129-35-143-4-14-32-109-60-213l-53-187 7-7c10-10 14-1 30 57 8 30 33 120 56 200 22 80 54 204 70 275l30 130 6 86 7 86-10 6-10 6-6-89zm225-20c-1-14 5-56 12-95l14-70v30c1 17-5 59-12 95l-14 65v-25zm29-193c-1-16 4-60 10-99s17-157 24-262l12-191 2 85c1 89-25 400-39 460l-8 35-1-28z"/></g><g fill="#29282a" transform="matrix(.1 0 0 -.1 0 300)"><path d="M2085 2780c10-11 20-20 23-20s-3 9-13 20-20 20-23 20 3-9 13-20zm-79-493c3-10 9-15 12-12s0 11-7 18l-12 12 7-18zm-726-117c8-5 20-10 25-10h10l-15 10c-8 5-19 10-25 10h-10l15-10zm290-97c0-4 5-15 10-23l10-15v17c0 9-4 20-10 23l-10 6v-8zm158-30c12-2 30-2 40 0l17 5-40-1h-40l23-4zm-131-44 7-23 4 13c2 7-1 18-6 23l-11 11 6-24zm-453-31-19-23 23 19c21 18 27 26 19 26-2 0-12-10-23-22zm504 5c7-3 16-2 19 1 4 3-2 6-13 5l-19-1 13-5zm50 0c12-2 30-2 40 0l17 5-40-1h-40l23-4zm-263-82c-22-4-53-14-70-23l-30-16-16-29-17-28 9-20 8-20v19l1 19 36 33 35 34h48l4-22 3-23 12 29 12 28 30-6 30-5v39l-27-1c-16-1-46-5-68-8zm-384-37 1-19 5 13c3 7 2 16-1 19-3 4-6-2-5-13zm469-33c0-11 5-23 11-27l11-6 9 9 10 10-7 16-6 17h-28v-19zm-359-17 1-19 5 13c3 7 2 16-1 19-3 4-6-2-5-13zm279-13c0-5 7-15 17-22l16-14-12 23c-12 23-21 28-21 13zm-438-51v-25l5 13c2 6 2 18 0 25l-5 12v-25zm565-1-5-20 14 12 14 11-6 9c-8 13-11 11-17-12zm-90 0c7-7 15-10 18-7s-2 9-12 12l-18 7 12-12zm-417-24c-1-16-4-41-5-55-2-14 0-29 3-34l5-9 8 22c5 12 16 24 26 28l17 7 4-12 3-11 15 6 14 5 9-23 10-24v20c0 23-18 50-36 51-7 1-24 2-37 3l-25 1-4 28-4 27-3-30zm1907-19-24-43-12-79-13-79 17-189c9-105 18-193 21-197 8-14 24-529 25-817V0h19v870c0 479-2 870-4 870s-15-20-29-44zm-1449 27c7-3 16-2 19 1 4 3-2 6-13 5l-19-1 13-5zm504-18v-30l5 18c2 9 2 23 0 30l-5 12v-30zm329-11 1-19 5 13c3 7 2 16-1 19-3 4-6-2-5-13zm201-9c0-11 4-31 8-45l8-25v20c0 11-4 31-8 45l-8 25v-20zm-1541-30c0-5 6-35 14-65l13-55 1 65 1 65-9-14-9-13-5 13-5 14-1-10zm660-21 1-19 5 13c3 7 2 16-1 19-3 4-6-2-5-13zm551-24v-25l5 13c2 6 2 18 0 25l-5 12v-25zm149-16 1-19 5 13c3 7 2 16-1 19-3 4-6-2-5-13zm-688-124v-65l4 33c2 17 2 47 0 65l-4 32v-65zm618 44 1-19 5 13c3 7 2 16-1 19-3 4-6-2-5-13zm-51-13c0-11 4-22 9-25l8-5-5 24c-5 30-12 33-12 6zm-1215-1-6-10h10c6 0 11 5 11 10 0 6-2 10-4 10-3 0-8-4-11-10zm1347-10v-25l5 13c2 6 2 18 0 25l-5 12v-25zm-111-56 1-19 5 13c3 7 2 16-1 19-3 4-6-2-5-13zm122-29v-40l4 23c2 12 2 30 0 40l-5 17 1-40zm-1291-35v-25l5 13c2 6 2 18 0 25l-5 12v-25zm852-12-19-23 23 19c21 18 27 26 19 26-2 0-12-10-23-22zm369-58v-65l4 33c2 17 2 47 0 65l-4 32v-65zm-1271 25v-30l5 18c2 9 2 23 0 30l-5 12v-30zm292 13c-2-3 9-16 25-27 31-23 52-28 33-9l-11 11 9 17 9 17-30-1c-17-1-33-4-35-8zm947-15-1-22-26-3-26-3-19-51-19-50-31-30-30-29-55 2-55 2-92 26-92 27-85-5c-47-2-94-8-104-12l-19-8 6 10 7 11-72-30-72-31-64-48c-35-26-80-69-99-93l-35-45-21 11c-34 18-43 30-62 88l-18 55-43 42c-24 24-44 47-44 52s-9 11-21 14l-20 6-6 20-5 21-8-5-9-5-6 17c-10 32-31 52-61 59l-29 7 19-21 18-21-10-30c-13-38-65-115-106-158l-31-33h-16c-8 0-24 7-35 15-10 8-22 15-26 15h-8V982l15-6 15-5v-79l-51-32-50-33-25-50-26-49-15-72-15-71 8-225c5-124 7-255 6-292l-3-68h1640l11 58c6 31 17 85 26 120 8 35 12 67 9 72s1 67 10 137c14 122 30 426 19 373-3-14-21-92-41-175l-37-150-4 18c-2 9 2 41 8 70 17 80 39 210 55 337l15 115v235l-10 18c-5 9-14 40-19 67l-9 50-1-22zm-44-925-5-13v50l5-12c2-7 2-19 0-25zm-361 916-6-17 17 14c10 7 20 15 22 16 2 2-3 3-11 3h-16l-6-16zm518-149v-150l3 78c2 43 2 110 0 150l-3 72v-150zm-625 99-24-27 22 14c13 7 25 19 27 26 8 19 2 16-25-13zm276 5c-49-10-101-21-115-23s-52-12-84-22l-59-19 94-12c52-6 124-12 161-12l67-1 24 11 24 11 14 36c8 20 15 40 17 45l4 7-29-1c-15 0-68-9-118-20zm338-354v-60l4 33c2 18 2 45 0 60l-4 27v-60zm-11-105v-35l5 18c2 9 2 25 0 35l-5 17v-35zm140-90v-35l5 18c2 9 2 25 0 35l-5 17v-35zm219 14 1-19 5 13c3 7 2 16-1 19-3 4-6-2-5-13zm-369-54v-35l5 18c2 9 2 25 0 35l-5 17v-35zm140-20v-25l5 13c2 6 2 18 0 25l-5 12v-25zm-150-55v-30l5 18c2 9 2 23 0 30l-5 12v-30zm399 9 1-19 5 13c3 7 2 16-1 19-3 4-6-2-5-13zm-260-20 1-19 5 13c3 7 2 16-1 19-3 4-6-2-5-13zm-10-40 1-19 5 13c3 7 2 16-1 19-3 4-6-2-5-13zm-139-19v-30l5 18c2 9 2 23 0 30l-5 12v-30zm129-31 1-19 5 13c3 7 2 16-1 19-3 4-6-2-5-13zm301-34v-25l5 13c2 6 2 18 0 25l-5 12v-25zm-311-6 1-19 5 13c3 7 2 16-1 19-3 4-6-2-5-13zm-49-176c-24-83-41-153-38-155 2-2 22 64 45 148 24 83 41 153 39 155-3 2-23-64-46-148zm370 92v-35l5 18c2 9 2 25 0 35l-5 17v-35zm-471-36 1-19 5 13c3 7 2 16-1 19-3 4-6-2-5-13zm492-229V75l4 23c2 12 2 30 0 40l-5 17 1-40zm-461-76-11-42 9 9c9 10 24 74 17 74-3 0-9-19-15-41zm460 1V15l5 13c2 6 2 18 0 25l-5 12V40z"/></g></g></svg>